HIERARCHY
ROOT pelvis
{
  OFFSET 0 100 0
  CHANNELS 6 Xposition Yposition Zposition Zrotation Xrotation Yrotation
  JOINT pelvis_right_femur
  {
    OFFSET -10.78128 -3.44521 -0.5502486
    CHANNELS 3 Zrotation Xrotation Yrotation
    JOINT right_femur_tibia
    {
      OFFSET -0.8047443 -44.0398 -0.1307829
      CHANNELS 3 Zrotation Xrotation Yrotation
      JOINT right_tibia_foot
      {
        OFFSET 3.006224 -47.83518 -5
        CHANNELS 3 Zrotation Xrotation Yrotation
        End Site
        {
          OFFSET 0 -5 15
        }
      }
    }
  }
  JOINT pelvis_left_femur
  {
    OFFSET 10.78128 -3.44521 -0.5502486
    CHANNELS 3 Zrotation Xrotation Yrotation
    JOINT left_femur_tibia
    {
      OFFSET 0.8047443 -44.0398 -0.1307829
      CHANNELS 3 Zrotation Xrotation Yrotation
      JOINT left_tibia_foot
      {
        OFFSET -4.370144 -48.10324 -4.275266
        CHANNELS 3 Zrotation Xrotation Yrotation
        End Site
        {
          OFFSET 0 -5 15
        }
      }
    }
  }
  JOINT pelvis_spine1
  {
    OFFSET 0 6.468898 -3.129235
    CHANNELS 3 Zrotation Xrotation Yrotation
    JOINT spine1
    {
      OFFSET 0 23.15396 4.99043
      CHANNELS 3 Zrotation Xrotation Yrotation
      JOINT spine2
      {
        OFFSET 0 20.79997 -5.064912
        CHANNELS 3 Zrotation Xrotation Yrotation
        JOINT neck
        {
          OFFSET 0 14.38658 9.616178
          CHANNELS 3 Zrotation Xrotation Yrotation
          End Site
          {
            OFFSET 0 20 0
          }
        }
      }
      JOINT right_manubrium
      {
        OFFSET -5.722621 16.35077 3.967754
        CHANNELS 3 Zrotation Xrotation Yrotation
        JOINT right_clavicle
        {
          OFFSET -13.16364 1.694482 -4.693211
          CHANNELS 3 Zrotation Xrotation Yrotation
          JOINT right_humerus
          {
            OFFSET -28.5034 -0.3100689 -2.792744
            CHANNELS 3 Zrotation Xrotation Yrotation
            JOINT right_radius
            {
              OFFSET -25.15693 0.02248979 -1.271978
              CHANNELS 3 Zrotation Xrotation Yrotation
              End Site
              {
                OFFSET -15 0 0
              }
            }
          }
        }
      }
      JOINT left_manubrium
      {
        OFFSET 5.722621 16.35077 3.967754
        CHANNELS 3 Zrotation Xrotation Yrotation
        JOINT left_clavicle
        {
          OFFSET 13.16364 1.694482 -4.693211
          CHANNELS 3 Zrotation Xrotation Yrotation
          JOINT left_humerus
          {
            OFFSET 29.39168 -1.063119 -2.237045
            CHANNELS 3 Zrotation Xrotation Yrotation
            JOINT left_radius
            {
              OFFSET 24.59957 -0.9528479 0.9047498
              CHANNELS 3 Zrotation Xrotation Yrotation
              End Site
              {
                OFFSET 15 -0 -0
              }
            }
          }
        }
      }
    }
  }
}
MOTION
Frames: 23
Frame Time: 0.0416666666667
1384.057 79.39772 3653.326 5.928194 -7.843428 31.00327 -6.315251 29.54162 11.04022 -0 30.88969 -0 5.907481 -21.03513 -1.83518 -3.059037 -6.164956 -14.15662 -0 7.130267 -0 -11.66771 -6.585424 21.15749 -2.057306 -0.4569927 5.599235 -1.847155 10.34678 -1.915715 1.930282 23.83168 6.397017 4.867976 -17.40553 7.421328 4.591737 -19.56893 11.05823 80.95863 36.81919 -4.922574 -0 0 16.95633 -21.28805 10.03522 12.87271 5.373665 -16.72665 -3.254514 -93.36292 15.28325 23.04143 0 0 -0.297006 13.79307 15.04875 -3.838106
1390.089 79.44604 3659.059 5.942842 -7.832365 31.11068 -6.315251 29.54162 11.04022 -0 30.88969 -0 5.907481 -21.03513 -1.83518 -3.059037 -6.164956 -14.15662 -0 7.130267 -0 -11.66771 -6.585423 21.15749 -2.057306 -0.4569925 5.599235 -1.847156 10.34678 -1.915714 1.930282 23.83168 6.397017 4.867976 -17.40553 7.421328 4.591737 -19.56893 11.05823 80.95863 36.81919 -4.922573 -0 0 16.95633 -21.28805 10.03522 12.87271 5.373665 -16.72665 -3.254514 -93.36292 15.28325 23.04143 0 0 -0.2970053 13.79307 15.04875 -3.838106
1396.132 79.49436 3664.781 5.957469 -7.821274 31.21809 -6.315251 29.54162 11.04022 -0 30.88969 -0 5.907482 -21.03513 -1.83518 -3.059037 -6.164956 -14.15662 -0 7.130266 -0 -11.66771 -6.585423 21.15749 -2.057306 -0.4569924 5.599235 -1.847156 10.34678 -1.915714 1.930282 23.83168 6.397017 4.867976 -17.40553 7.421328 4.591737 -19.56893 11.05823 80.95863 36.81919 -4.922573 -0 0 16.95633 -21.28805 10.03522 12.87272 5.373665 -16.72665 -3.254515 -93.36292 15.28325 23.04143 0 0 -0.2970047 13.79307 15.04875 -3.838107
1402.185 79.54269 3670.491 5.972074 -7.810156 31.3255 -6.315251 29.54161 11.04022 -0 30.88969 -0 5.907482 -21.03513 -1.83518 -3.059037 -6.164956 -14.15662 -0 7.130266 -0 -11.66771 -6.585423 21.15749 -2.057306 -0.4569922 5.599235 -1.847156 10.34678 -1.915714 1.930282 23.83168 6.397017 4.867977 -17.40553 7.421328 4.591737 -19.56893 11.05823 80.95863 36.81919 -4.922572 -0 0 16.95633 -21.28805 10.03522 12.87272 5.373665 -16.72665 -3.254515 -93.36292 15.28325 23.04143 0 0 -0.297004 13.79307 15.04875 -3.838107
1408.249 79.59101 3676.19 5.986658 -7.799011 31.4329 -6.315251 29.54161 11.04022 -0 30.88969 -0 5.907483 -21.03513 -1.835181 -3.059037 -6.164956 -14.15662 -0 7.130266 -0 -11.66771 -6.585422 21.15749 -2.057306 -0.456992 5.599235 -1.847156 10.34678 -1.915714 1.930282 23.83168 6.397017 4.867977 -17.40553 7.421328 4.591737 -19.56893 11.05823 80.95863 36.81919 -4.922572 -0 0 16.95633 -21.28805 10.03522 12.87272 5.373665 -16.72665 -3.254515 -93.36292 15.28325 23.04143 0 0 -0.2970034 13.79307 15.04875 -3.838107
1414.324 79.63933 3681.878 6.00122 -7.787839 31.54029 -6.315251 29.54161 11.04022 -0 30.88969 -0 5.907483 -21.03513 -1.835181 -3.059037 -6.164956 -14.15662 -0 7.130266 -0 -11.66771 -6.585422 21.15749 -2.057306 -0.4569919 5.599234 -1.847157 10.34678 -1.915713 1.930282 23.83168 6.397017 4.867977 -17.40552 7.421328 4.591737 -19.56893 11.05823 80.95863 36.81919 -4.922571 -0 0 16.95633 -21.28805 10.03522 12.87272 5.373665 -16.72665 -3.254516 -93.36292 15.28325 23.04143 0 0 -0.2970027 13.79307 15.04875 -3.838107
1420.409 79.68765 3687.554 6.015761 -7.77664 31.64768 -6.315251 29.54161 11.04022 -0 30.88969 -0 5.907484 -21.03513 -1.835181 -3.059036 -6.164957 -14.15662 -0 7.130265 -0 -11.66771 -6.585422 21.15749 -2.057306 -0.4569917 5.599234 -1.847157 10.34678 -1.915713 1.930282 23.83168 6.397017 4.867977 -17.40552 7.421328 4.591737 -19.56893 11.05823 80.95863 36.81919 -4.922571 -0 0 16.95633 -21.28806 10.03522 12.87272 5.373665 -16.72665 -3.254516 -93.36292 15.28325 23.04143 0 0 -0.2970021 13.79307 15.04875 -3.838108
1426.505 79.73597 3693.219 6.03028 -7.765413 31.75506 -6.315251 29.54161 11.04023 -0 30.88969 -0 5.907484 -21.03513 -1.835181 -3.059036 -6.164957 -14.15662 -0 7.130265 -0 -11.66771 -6.585422 21.15749 -2.057306 -0.4569916 5.599234 -1.847157 10.34678 -1.915713 1.930282 23.83168 6.397017 4.867977 -17.40552 7.421328 4.591737 -19.56893 11.05823 80.95863 36.81919 -4.92257 -0 0 16.95633 -21.28806 10.03522 12.87272 5.373665 -16.72665 -3.254516 -93.36292 15.28325 23.04143 0 0 -0.2970015 13.79307 15.04875 -3.838108
1432.611 79.7843 3698.872 6.044778 -7.75416 31.86243 -6.315251 29.54161 11.04023 -0 30.88969 -0 5.907485 -21.03513 -1.835181 -3.059036 -6.164957 -14.15662 -0 7.130265 -0 -11.66771 -6.585421 21.15749 -2.057306 -0.4569914 5.599234 -1.847157 10.34678 -1.915713 1.930282 23.83168 6.397017 4.867978 -17.40552 7.421328 4.591737 -19.56893 11.05823 80.95863 36.81919 -4.92257 -0 0 16.95633 -21.28806 10.03522 12.87272 5.373665 -16.72665 -3.254516 -93.36292 15.28325 23.04143 0 0 -0.2970009 13.79307 15.04875 -3.838108
1438.728 79.83262 3704.515 6.059254 -7.742881 31.9698 -6.315251 29.54161 11.04023 -0 30.88969 -0 5.907486 -21.03513 -1.835181 -3.059036 -6.164957 -14.15661 -0 7.130265 -0 -11.66771 -6.585421 21.15749 -2.057306 -0.4569913 5.599234 -1.847157 10.34678 -1.915713 1.930282 23.83168 6.397017 4.867978 -17.40552 7.421327 4.591736 -19.56893 11.05823 80.95863 36.81919 -4.922569 -0 0 16.95633 -21.28806 10.03522 12.87272 5.373665 -16.72665 -3.254517 -93.36292 15.28325 23.04143 0 0 -0.2970004 13.79307 15.04875 -3.838108
1444.856 79.88094 3710.145 6.073708 -7.731574 32.07717 -6.315251 29.54161 11.04023 -0 30.88969 -0 5.907486 -21.03513 -1.835181 -3.059036 -6.164957 -14.15661 -0 7.130264 -0 -11.66771 -6.585421 21.15749 -2.057306 -0.4569911 5.599234 -1.847158 10.34678 -1.915712 1.930282 23.83168 6.397018 4.867978 -17.40552 7.421327 4.591736 -19.56893 11.05823 80.95863 36.81919 -4.922569 -0 0 16.95633 -21.28806 10.03522 12.87272 5.373665 -16.72665 -3.254517 -93.36292 15.28324 23.04143 0 0 -0.2969998 13.79307 15.04875 -3.838109
1450.994 79.92926 3715.765 6.088141 -7.72024 32.18453 -6.315251 29.54161 11.04023 -0 30.88969 -0 5.907486 -21.03513 -1.835181 -3.059036 -6.164957 -14.15661 -0 7.130264 -0 -11.66771 -6.58542 21.15749 -2.057306 -0.456991 5.599234 -1.847158 10.34678 -1.915712 1.930282 23.83168 6.397018 4.867978 -17.40552 7.421327 4.591736 -19.56893 11.05823 80.95863 36.81919 -4.922569 -0 0 16.95633 -21.28806 10.03522 12.87272 5.373665 -16.72665 -3.254517 -93.36292 15.28324 23.04143 0 0 -0.2969993 13.79307 15.04875 -3.838109
1457.142 79.97758 3721.372 6.102551 -7.70888 32.29188 -6.315251 29.54161 11.04023 -0 30.88969 -0 5.907487 -21.03513 -1.835181 -3.059036 -6.164957 -14.15661 -0 7.130264 -0 -11.66771 -6.58542 21.15749 -2.057306 -0.4569908 5.599234 -1.847158 10.34678 -1.915712 1.930282 23.83168 6.397018 4.867978 -17.40552 7.421327 4.591736 -19.56893 11.05823 80.95863 36.81919 -4.922568 -0 0 16.95633 -21.28806 10.03522 12.87272 5.373666 -16.72665 -3.254517 -93.36292 15.28324 23.04143 0 0 -0.2969987 13.79307 15.04875 -3.838109
1463.301 80.02591 3726.969 6.11694 -7.697493 32.39923 -6.315251 29.54161 11.04023 -0 30.88969 -0 5.907487 -21.03513 -1.835181 -3.059036 -6.164957 -14.15661 -0 7.130264 -0 -11.66771 -6.58542 21.15749 -2.057306 -0.4569907 5.599233 -1.847158 10.34678 -1.915712 1.930282 23.83168 6.397018 4.867979 -17.40552 7.421327 4.591736 -19.56893 11.05823 80.95863 36.81919 -4.922568 -0 0 16.95633 -21.28806 10.03522 12.87272 5.373666 -16.72665 -3.254517 -93.36292 15.28324 23.04143 0 0 -0.2969982 13.79307 15.04875 -3.838109
1469.471 80.07423 3732.553 6.131307 -7.686079 32.50657 -6.315251 29.54161 11.04023 -0 30.88969 -0 5.907488 -21.03513 -1.835181 -3.059036 -6.164958 -14.15661 -0 7.130263 -0 -11.66771 -6.58542 21.15749 -2.057306 -0.4569906 5.599233 -1.847158 10.34678 -1.915712 1.930282 23.83168 6.397018 4.867979 -17.40552 7.421327 4.591736 -19.56893 11.05823 80.95863 36.81919 -4.922567 -0 0 16.95633 -21.28806 10.03522 12.87272 5.373666 -16.72665 -3.254518 -93.36292 15.28324 23.04143 0 0 -0.2969977 13.79307 15.04875 -3.83811
1475.651 80.12255 3738.127 6.145651 -7.674638 32.6139 -6.315251 29.54161 11.04023 -0 30.88969 -0 5.907488 -21.03513 -1.835181 -3.059036 -6.164958 -14.15661 -0 7.130263 -0 -11.66771 -6.585419 21.15749 -2.057306 -0.4569904 5.599233 -1.847159 10.34678 -1.915711 1.930282 23.83168 6.397018 4.867979 -17.40552 7.421327 4.591736 -19.56893 11.05823 80.95863 36.81919 -4.922567 -0 0 16.95633 -21.28806 10.03522 12.87272 5.373666 -16.72665 -3.254518 -93.36292 15.28324 23.04143 0 0 -0.2969972 13.79307 15.04875 -3.83811
1481.841 80.17087 3743.688 6.159974 -7.663171 32.72123 -6.315251 29.54161 11.04023 -0 30.88969 -0 5.907489 -21.03513 -1.835181 -3.059036 -6.164958 -14.15661 -0 7.130263 -0 -11.66771 -6.585419 21.15749 -2.057306 -0.4569903 5.599233 -1.847159 10.34678 -1.915711 1.930282 23.83169 6.397018 4.867979 -17.40552 7.421327 4.591736 -19.56893 11.05823 80.95863 36.81919 -4.922567 -0 0 16.95633 -21.28806 10.03522 12.87272 5.373666 -16.72665 -3.254518 -93.36292 15.28324 23.04143 0 0 -0.2969967 13.79307 15.04875 -3.83811
1488.041 80.2192 3749.239 6.174275 -7.651678 32.82856 -6.315251 29.54161 11.04023 -0 30.88969 -0 5.907489 -21.03513 -1.835181 -3.059035 -6.164958 -14.15661 -0 7.130263 -0 -11.66771 -6.585419 21.15749 -2.057306 -0.4569902 5.599233 -1.847159 10.34678 -1.915711 1.930282 23.83169 6.397018 4.867979 -17.40552 7.421327 4.591736 -19.56893 11.05823 80.95863 36.81919 -4.922566 -0 0 16.95633 -21.28806 10.03522 12.87272 5.373666 -16.72665 -3.254518 -93.36292 15.28324 23.04143 0 0 -0.2969962 13.79307 15.04875 -3.83811
1494.252 80.26752 3754.777 6.188553 -7.640158 32.93587 -6.315251 29.54161 11.04023 -0 30.8897 -0 5.90749 -21.03513 -1.835181 -3.059035 -6.164958 -14.15661 -0 7.130263 -0 -11.66771 -6.585419 21.15749 -2.057306 -0.4569901 5.599233 -1.847159 10.34678 -1.915711 1.930282 23.83169 6.397018 4.867979 -17.40552 7.421327 4.591736 -19.56893 11.05823 80.95863 36.81919 -4.922566 -0 0 16.95633 -21.28806 10.03522 12.87272 5.373666 -16.72665 -3.254519 -93.36292 15.28324 23.04143 0 0 -0.2969958 13.79307 15.04875 -3.83811
1500.474 80.31584 3760.304 6.20281 -7.628611 33.04319 -6.315251 29.54161 11.04023 -0 30.8897 -0 5.90749 -21.03513 -1.835181 -3.059035 -6.164958 -14.15661 -0 7.130262 -0 -11.66771 -6.585418 21.15749 -2.057306 -0.45699 5.599233 -1.847159 10.34678 -1.915711 1.930282 23.83169 6.397018 4.86798 -17.40552 7.421327 4.591736 -19.56893 11.05823 80.95863 36.81919 -4.922565 -0 0 16.95633 -21.28806 10.03522 12.87272 5.373666 -16.72665 -3.254519 -93.36292 15.28324 23.04143 0 0 -0.2969953 13.79307 15.04875 -3.838111
1506.705 80.36416 3765.819 6.217044 -7.617038 33.15049 -6.315251 29.54161 11.04023 -0 30.8897 -0 5.90749 -21.03513 -1.835181 -3.059035 -6.164958 -14.15661 -0 7.130262 -0 -11.66771 -6.585418 21.15749 -2.057306 -0.4569899 5.599233 -1.847159 10.34678 -1.91571 1.930282 23.83169 6.397018 4.86798 -17.40552 7.421327 4.591736 -19.56893 11.05823 80.95863 36.81919 -4.922565 -0 0 16.95633 -21.28806 10.03522 12.87272 5.373666 -16.72665 -3.254519 -93.36292 15.28324 23.04143 0 0 -0.2969949 13.79307 15.04875 -3.838111
1512.947 80.41249 3771.323 6.231256 -7.605438 33.2578 -6.315251 29.54161 11.04023 -0 30.8897 -0 5.907491 -21.03513 -1.835181 -3.059035 -6.164958 -14.15661 -0 7.130262 -0 -11.66771 -6.585418 21.15749 -2.057306 -0.4569897 5.599233 -1.84716 10.34678 -1.91571 1.930282 23.83169 6.397018 4.86798 -17.40552 7.421327 4.591736 -19.56893 11.05823 80.95863 36.81919 -4.922565 -0 0 16.95633 -21.28806 10.03522 12.87272 5.373666 -16.72665 -3.254519 -93.36292 15.28324 23.04143 0 0 -0.2969944 13.79307 15.04875 -3.838111
1519.199 80.46081 3776.815 6.245445 -7.593813 33.36509 -6.315251 29.54161 11.04023 -0 30.8897 -0 5.907491 -21.03513 -1.835181 -3.059035 -6.164959 -14.15661 -0 7.130262 -0 -11.66771 -6.585418 21.15749 -2.057306 -0.4569896 5.599232 -1.84716 10.34678 -1.91571 1.930282 23.83169 6.397018 4.86798 -17.40552 7.421326 4.591735 -19.56893 11.05823 80.95863 36.81919 -4.922564 -0 0 16.95633 -21.28806 10.03522 12.87272 5.373666 -16.72665 -3.254519 -93.36292 15.28324 23.04143 0 0 -0.296994 13.79307 15.04875 -3.838111
